<?xml version="1.0" standalone="no"?>
<!DOCTYPE svg PUBLIC "-//W3C//DTD SVG 20010904//EN"
 "http://www.w3.org/TR/2001/REC-SVG-20010904/DTD/svg10.dtd">
<svg version="1.0" xmlns="http://www.w3.org/2000/svg"
 width="500.000000pt" height="500.000000pt" viewBox="0 0 500.000000 500.000000"
 preserveAspectRatio="xMidYMid meet">
<metadata>
Created by potrace 1.14, written by Peter Selinger 2001-2017
</metadata>
<g transform="translate(0.000000,500.000000) scale(0.100000,-0.100000)"
fill="#000000" stroke="none">
<path d="M2370 4036 c0 -13 6 -26 13 -29 22 -7 37 4 37 29 0 19 -5 24 -25 24
-20 0 -25 -5 -25 -24z"/>
<path d="M1201 4027 c-76 -24 -146 -128 -153 -224 -2 -29 -7 -34 -53 -48 -91
-30 -170 -106 -200 -194 -24 -67 -30 -76 -53 -79 -25 -4 -90 -66 -103 -99 -13
-35 -11 -110 4 -120 6 -4 158 -8 337 -9 179 -1 326 -2 328 -3 1 -1 -11 -20
-28 -43 -56 -77 -120 -226 -155 -362 -40 -157 -47 -207 -50 -348 -4 -183 42
-416 114 -588 17 -41 31 -77 31 -80 0 -3 -111 -4 -247 -3 -278 3 -309 0 -318
-26 -5 -15 -10 -554 -6 -638 1 -12 12 -34 25 -50 l24 -28 168 0 c103 0 169 -4
168 -10 -2 -37 -19 -66 -43 -72 -14 -3 -31 -13 -36 -20 -8 -11 -63 -14 -286
-13 -227 0 -278 -2 -288 -14 -9 -11 -8 -17 7 -28 29 -20 1380 -18 1393 3 19
30 1 34 -153 37 -140 2 -157 4 -173 22 -10 11 -24 20 -31 20 -10 0 -44 57 -44
74 0 1 85 1 190 1 l190 0 27 27 c23 24 27 35 27 97 1 39 3 71 6 71 3 0 14 -6
25 -13 24 -17 184 -85 228 -98 61 -18 210 -50 266 -57 125 -15 333 -7 461 18
30 6 72 13 93 16 l38 6 -3 -39 c-2 -26 -7 -37 -17 -35 -20 4 -41 -17 -34 -36
4 -9 17 -28 31 -42 l24 -25 -228 -5 c-126 -3 -230 -7 -231 -8 -7 -6 -2 -32 8
-37 20 -13 2148 -10 2161 3 8 8 8 15 -2 27 -9 11 -32 15 -87 15 -68 0 -74 2
-67 18 4 9 8 196 8 414 0 317 -3 402 -14 422 -13 25 -16 26 -122 26 l-108 0
-1 58 c-1 82 -4 94 -39 125 l-30 27 -179 0 -179 0 5 63 c3 34 7 64 10 67 2 2
19 -13 37 -34 19 -21 36 -34 38 -29 5 7 16 53 34 133 3 14 7 90 8 170 6 286
-71 561 -221 785 -94 141 -115 168 -202 255 -106 105 -151 141 -266 212 -179
111 -279 150 -530 203 -52 12 -358 16 -415 6 -154 -26 -236 -46 -313 -75 -73
-27 -171 -75 -223 -106 -29 -18 -38 -20 -44 -9 -5 7 -7 16 -4 21 9 15 -47 108
-82 134 -39 30 -115 53 -155 47 -21 -3 -30 4 -53 40 -49 78 -155 114 -245 84z
m378 -466 c-1 -3 -23 -25 -49 -49 l-48 -43 -31 46 c-17 25 -31 48 -31 50 0 5
131 11 148 6 6 -2 12 -6 11 -10z m-715 -73 c-1 -35 -5 -73 -7 -85 -3 -13 -1
-25 4 -29 6 -3 -3 -17 -18 -30 -23 -20 -39 -24 -91 -24 -61 0 -63 1 -56 23 17
54 44 76 115 91 21 5 25 11 28 48 2 34 14 68 26 68 1 0 1 -28 -1 -62z m2876
-981 c56 -54 70 -122 40 -191 -32 -76 -109 -115 -191 -97 -23 5 -45 13 -49 18
-17 17 -48 81 -54 110 -20 89 58 181 164 195 39 5 55 -1 90 -35z m-206 -522
c13 -9 58 -15 121 -16 111 -3 149 -11 183 -43 56 -50 56 -51 57 -459 0 -235
-3 -381 -9 -385 -6 -3 -29 -6 -53 -7 -39 -1 -43 1 -44 24 -1 15 -2 176 -3 359
-1 295 -3 335 -17 345 -12 9 -90 12 -275 11 -143 0 -267 3 -276 8 -18 9 -17
40 3 90 15 36 82 79 136 87 62 9 153 1 177 -14z m-419 -117 c-1 -43 -11 -58
-37 -53 -30 6 -32 11 -18 44 10 26 20 34 51 40 3 0 5 -14 4 -31z m-1516 -215
c1 -65 2 -137 3 -161 2 -23 1 -42 -2 -42 -3 0 -5 -11 -5 -24 3 -54 58 -77 75
-31 13 33 27 32 35 -4 3 -16 13 -32 21 -35 8 -3 14 -10 14 -16 0 -8 -40 -10
-125 -8 -69 1 -125 6 -125 11 0 4 -4 5 -10 2 -5 -3 -10 2 -10 12 0 15 8 19 36
20 38 1 62 22 41 35 -7 4 -34 8 -62 8 -44 1 -48 2 -32 14 10 8 27 12 38 9 10
-3 25 0 32 6 8 6 18 7 23 3 5 -4 1 2 -9 14 -14 17 -27 21 -63 19 -36 -2 -42 0
-34 10 10 12 43 12 76 1 12 -4 52 16 53 27 1 4 1 14 1 23 0 9 5 12 12 8 7 -5
8 -3 3 6 -12 19 -13 140 -1 133 5 -4 7 1 3 11 -4 10 -7 20 -7 22 0 2 -15 4
-32 4 -33 1 -78 25 -59 31 6 2 33 5 60 7 l49 2 1 -117z m1522 65 c0 -7 1 -123
1 -258 1 -271 -1 -279 -71 -360 l-30 -35 -1 333 0 332 50 0 c33 0 50 -4 51
-12z m600 5 c4 -25 3 -463 -1 -464 -3 -1 -117 -2 -253 -3 -163 -1 -251 2 -256
9 -6 8 -8 400 -2 453 1 9 59 12 256 12 140 0 256 -3 256 -7z m-2389 -673 c29
-59 30 -58 -117 -58 -74 1 -135 3 -135 5 0 11 32 78 40 83 5 3 51 5 102 5 l93
0 17 -35z"/>
<path d="M1545 1491 c-3 -5 0 -13 6 -17 7 -4 9 -3 5 4 -3 5 0 13 6 15 9 4 10
6 1 6 -6 1 -14 -3 -18 -8z"/>
<path d="M3429 4000 c-85 -24 -128 -114 -94 -197 19 -45 89 -93 136 -93 67 0
129 75 129 155 0 87 -90 158 -171 135z m98 -89 c21 -27 15 -75 -11 -101 -29
-26 -56 -21 -56 10 0 12 -4 19 -9 16 -5 -3 -13 0 -19 7 -12 15 -12 47 0 47 5
0 6 -10 2 -22 l-7 -23 24 20 c14 12 18 13 11 4 -10 -13 -10 -19 1 -28 11 -8
18 -6 32 9 21 23 13 50 -16 57 -13 4 -16 8 -9 13 19 11 44 8 57 -9z"/>
<path d="M3925 3844 c-153 -36 -244 -214 -178 -351 16 -34 16 -34 -17 -68 -26
-27 -31 -39 -26 -59 9 -35 29 -33 74 8 l37 34 30 -23 c77 -62 217 -43 300 40
65 64 87 165 57 254 -16 47 -80 119 -128 144 -32 16 -117 28 -149 21z"/>
<path d="M3934 3245 c-42 -17 -64 -51 -64 -96 0 -112 157 -143 200 -39 35 86
-51 172 -136 135z m76 -56 c0 -6 -9 -13 -20 -16 -11 -3 -20 -12 -20 -20 0 -10
6 -12 20 -8 13 4 20 2 20 -7 0 -37 -51 -43 -70 -7 -11 19 -3 49 14 61 17 12
56 9 56 -3z"/>
<path d="M529 3068 c-5 -9 -9 -90 -9 -180 0 -173 4 -188 47 -188 21 0 22 -5
25 -72 3 -65 5 -73 23 -74 11 -1 25 -2 30 -3 6 -1 10 -50 11 -124 1 -134 15
-183 57 -206 56 -30 121 -15 154 35 13 20 17 54 19 146 2 66 8 125 13 132 6 7
8 16 4 19 -3 4 -1 7 6 7 7 0 10 4 6 9 -3 5 -1 12 5 16 5 3 10 13 10 22 0 9 -3
14 -6 10 -12 -12 -34 22 -34 51 0 34 9 39 65 36 75 -4 75 -5 75 191 0 128 -3
176 -12 182 -7 4 -118 8 -246 8 -209 0 -235 -2 -243 -17z m301 -429 c0 -5 -4
-8 -9 -4 -6 3 -15 -3 -20 -14 -9 -16 -7 -21 11 -27 20 -6 20 -8 5 -19 -21 -15
-22 -45 -2 -45 22 0 18 -15 -7 -33 l-23 -16 24 -19 24 -20 -22 -11 c-19 -11
-20 -15 -9 -29 11 -13 11 -14 -1 -7 -9 5 -12 4 -7 -3 4 -6 13 -9 21 -5 8 3 15
0 15 -6 0 -6 -9 -11 -20 -11 -11 0 -20 5 -20 10 0 6 -8 10 -17 10 -14 0 -15 2
-4 9 7 5 9 11 4 14 -5 3 -8 49 -8 101 1 80 5 99 21 115 21 22 44 27 44 10z"/>
<path d="M4285 2993 c-39 -6 -45 -17 -45 -80 0 -50 -2 -54 -32 -67 -68 -31
-90 -65 -90 -139 0 -86 59 -142 152 -142 93 0 153 56 153 144 1 61 -31 112
-85 138 -46 22 -47 51 -3 73 33 17 43 43 25 65 -12 15 -20 16 -75 8z"/>
<path d="M4187 2401 c-2 -10 -17 -25 -33 -32 -38 -19 -40 -35 -6 -53 16 -8 33
-27 36 -41 9 -35 33 -31 50 9 8 19 24 37 37 41 l23 8 -30 26 c-17 14 -34 34
-37 44 -8 23 -33 22 -40 -2z"/>
<path d="M763 2082 c-6 -4 -15 -19 -18 -35 -4 -15 -11 -25 -15 -22 -4 3 -19
-4 -31 -15 -24 -20 -24 -20 -5 -35 11 -8 25 -15 32 -15 6 0 14 -13 17 -29 8
-40 35 -48 48 -14 5 14 17 32 26 38 14 10 13 13 -3 30 -11 10 -23 38 -29 61
-7 29 -14 41 -22 36z"/>
<path d="M4314 2075 c-9 -23 3 -45 25 -45 25 0 34 14 26 40 -7 23 -43 27 -51
5z"/>
<path d="M1984 1028 c-6 -7 -9 -23 -8 -35 1 -21 -3 -23 -52 -23 -42 0 -55 -4
-63 -19 -8 -14 -6 -20 12 -28 31 -13 284 -10 298 4 17 17 4 41 -23 45 -16 2
-23 10 -24 26 -3 52 -59 59 -59 7 -1 -44 -33 -47 -37 -3 -3 35 -27 49 -44 26z"/>
<path d="M2342 1018 c-7 -7 -8 -17 -1 -30 12 -22 32 -23 49 -3 23 28 -21 60
-48 33z"/>
<path d="M2224 956 c-8 -22 2 -33 28 -32 16 1 23 7 23 21 0 25 -42 34 -51 11z"/>
</g>
</svg>
